<?xml version="1.0" standalone="no"?>
<!DOCTYPE svg PUBLIC "-//W3C//DTD SVG 20010904//EN"
 "http://www.w3.org/TR/2001/REC-SVG-20010904/DTD/svg10.dtd">
<svg version="1.0" xmlns="http://www.w3.org/2000/svg"
 width="168.000000pt" height="300.000000pt" viewBox="0 0 168.000000 300.000000"
 preserveAspectRatio="xMidYMid meet">

<g transform="translate(0.000000,300.000000) scale(0.100000,-0.100000)"
fill="#000000" stroke="none">
<path d="M0 2065 l0 -935 43 5 c36 3 39 2 19 -7 -12 -6 -22 -15 -22 -20 0 -4
-9 -8 -20 -8 -20 0 -20 -7 -20 -550 l0 -550 840 0 840 0 0 745 0 745 -34 -18
c-18 -10 -41 -26 -51 -35 -9 -9 -22 -17 -28 -16 -9 0 -8 2 1 6 6 2 12 13 12
24 0 12 7 19 19 19 10 0 21 6 24 14 3 8 16 16 29 18 23 3 23 4 26 177 2 152 1
173 -13 167 -8 -3 -15 -1 -15 4 0 6 7 10 15 10 13 0 15 70 15 570 l0 570 -840
0 -840 0 0 -935z m960 485 c0 -5 -4 -10 -10 -10 -5 0 -10 5 -10 10 0 6 5 10
10 10 6 0 10 -4 10 -10z m-350 -600 c0 -5 -4 -10 -10 -10 -5 0 -10 5 -10 10 0
6 5 10 10 10 6 0 10 -4 10 -10z m390 -30 c0 -5 -4 -10 -10 -10 -5 0 -10 5 -10
10 0 6 5 10 10 10 6 0 10 -4 10 -10z m-79 -41 c47 -16 102 -71 139 -140 30
-56 38 -64 68 -60 21 3 13 -16 -10 -23 -22 -6 -21 -7 12 -28 26 -17 30 -24 18
-26 -16 -3 -16 -5 2 -25 11 -11 20 -27 20 -34 0 -7 13 -41 30 -76 19 -39 26
-65 20 -71 -24 -24 -7 -31 65 -30 73 0 74 0 58 -19 -12 -13 -27 -18 -50 -15
-20 2 -29 0 -24 -5 15 -15 -11 -36 -32 -26 -13 8 -19 5 -26 -14 -11 -28 -33
-39 -58 -30 -15 5 -16 3 -6 -7 9 -10 18 -11 35 -3 13 6 31 7 42 3 17 -6 16 -9
-14 -43 -35 -40 -125 -94 -318 -190 -111 -55 -125 -60 -152 -50 -26 10 -31 8
-45 -13 -9 -14 -20 -22 -25 -19 -6 4 -20 -1 -32 -9 -25 -18 -58 -21 -58 -6 0
5 -13 7 -30 5 -16 -2 -30 -1 -30 2 0 11 35 32 53 33 9 0 17 4 17 8 0 5 11 15
25 22 20 11 27 11 40 0 9 -7 15 -8 15 -2 0 6 -12 21 -28 34 -15 12 -27 30 -27
38 -1 25 -82 186 -109 215 -14 15 -23 31 -21 36 3 4 0 11 -6 15 -7 4 -9 3 -6
-3 4 -7 -3 -10 -17 -9 l-25 1 21 23 c17 18 18 22 6 22 -10 0 -18 13 -23 36 -3
21 -13 47 -21 59 -8 12 -17 45 -21 73 -13 111 17 146 217 255 36 19 87 47 114
63 73 41 139 52 197 33z m668 -22 c8 -11 6 -13 -12 -11 -30 3 -29 3 -22 14 8
14 20 13 34 -3z m-1279 -22 c0 -8 -2 -15 -4 -15 -2 0 -6 7 -10 15 -3 8 -1 15
4 15 6 0 10 -7 10 -15z m1230 5 c0 -5 -7 -10 -16 -10 -8 0 -12 5 -9 10 3 6 10
10 16 10 5 0 9 -4 9 -10z m-150 -30 c-8 -5 -22 -10 -30 -10 -13 0 -13 1 0 10
8 5 22 10 30 10 13 0 13 -1 0 -10z m-76 -16 c19 -7 21 -20 4 -22 -29 -2 -49
-9 -60 -20 -14 -14 -38 -16 -38 -4 0 15 25 40 45 45 31 7 32 7 49 1z m266 -14
c-6 -11 -15 -18 -20 -15 -13 8 0 35 16 35 12 0 12 -4 4 -20z m80 12 c0 -5 -7
-9 -15 -9 -8 0 -12 4 -9 9 3 4 9 8 15 8 5 0 9 -4 9 -8z m-132 -48 c2 -1 -5 -5
-15 -8 -9 -4 -14 -4 -10 0 4 4 1 14 -6 23 -11 14 -10 15 8 1 11 -8 21 -15 23
-16z m-78 -16 c0 -18 -2 -20 -9 -8 -6 8 -7 18 -5 22 9 14 14 9 14 -14z m-230
-38 c0 -5 -5 -10 -11 -10 -5 0 -7 5 -4 10 3 6 8 10 11 10 2 0 4 -4 4 -10z m41
-28 c-7 -2 -18 1 -23 6 -8 8 -4 9 13 5 13 -4 18 -8 10 -11z m-61 -12 c0 -5 -5
-10 -11 -10 -5 0 -7 5 -4 10 3 6 8 10 11 10 2 0 4 -4 4 -10z m174 -136 c3 -8
2 -12 -4 -9 -6 3 -10 10 -10 16 0 14 7 11 14 -7z m-1094 -40 c0 -17 -6 -24
-19 -24 -23 0 -40 22 -23 28 7 2 12 10 12 18 0 8 6 11 15 8 8 -4 15 -17 15
-30z m1107 -70 c-9 -9 -28 6 -21 18 4 6 10 6 17 -1 6 -6 8 -13 4 -17z m-957
-50 c0 -5 -105 -54 -115 -54 -5 0 -17 -8 -28 -17 -18 -17 -19 -17 -16 7 3 16
14 30 34 38 17 8 37 17 45 22 15 8 80 11 80 4z m1010 -29 c0 -9 -12 -18 -30
-22 -17 -3 -33 -10 -36 -14 -3 -5 -9 -9 -15 -9 -5 0 -4 9 3 20 7 11 20 20 30
20 9 0 20 5 23 10 9 15 25 12 25 -5z m-1320 1 c0 -3 -4 -8 -10 -11 -5 -3 -10
-1 -10 4 0 6 5 11 10 11 6 0 10 -2 10 -4z m1480 -40 c0 -3 -4 -8 -10 -11 -5
-3 -10 -1 -10 4 0 6 5 11 10 11 6 0 10 -2 10 -4z m-1286 -41 c-4 -8 -8 -15
-10 -15 -2 0 -4 7 -4 15 0 8 4 15 10 15 5 0 7 -7 4 -15z m135 -2 c0 -11 -3
-13 -6 -5 -7 17 -42 15 -49 -3 -7 -18 -58 -21 -52 -2 5 12 42 24 86 26 15 1
22 -4 21 -16z m-152 -39 c-3 -3 -12 -4 -19 -1 -8 3 -5 6 6 6 11 1 17 -2 13 -5z
m-192 -14 c3 -5 0 -10 -7 -10 -7 0 -24 -3 -38 -6 -24 -6 -25 -6 -5 9 23 19 41
21 50 7z m1305 -40 c0 -5 -5 -10 -11 -10 -5 0 -7 5 -4 10 3 6 8 10 11 10 2 0
4 -4 4 -10z m-1273 -66 c-3 -3 -12 -4 -19 -1 -8 3 -5 6 6 6 11 1 17 -2 13 -5z
m-47 -89 c0 -8 -7 -15 -15 -15 -8 0 -15 5 -15 11 0 5 5 7 10 4 6 -3 10 -1 10
4 0 6 2 11 5 11 3 0 5 -7 5 -15z m410 -85 c0 -5 -5 -10 -11 -10 -5 0 -7 5 -4
10 3 6 8 10 11 10 2 0 4 -4 4 -10z m-286 -83 c30 -16 24 -27 -15 -27 -15 0
-29 -7 -33 -16 -5 -12 -15 -15 -39 -11 -17 2 -41 0 -52 -5 -19 -8 -19 -8 -2 5
9 8 17 18 17 24 0 19 23 32 40 23 13 -7 22 -5 30 5 15 18 21 19 54 2z m421
-47 c5 -15 0 -26 -17 -40 -29 -25 -46 -26 -25 -2 10 10 17 25 17 33 0 12 -2
11 -10 -1 -5 -8 -10 -10 -10 -4 0 11 20 34 31 34 4 0 11 -9 14 -20z m-205
-371 c0 -101 -3 -129 -12 -123 -8 5 -8 2 1 -10 8 -9 10 -16 5 -15 -21 4 -28
-2 -14 -11 12 -7 11 -9 -5 -10 -45 -1 -80 -5 -85 -11 -5 -6 -225 -49 -251 -49
-8 0 67 81 166 180 99 99 183 180 187 180 5 0 8 -59 8 -131z m860 -249 c0 -5
-7 -10 -15 -10 -8 0 -15 5 -15 10 0 6 7 10 15 10 8 0 15 -4 15 -10z m-1056 -9
c4 -5 -3 -7 -14 -4 -23 6 -26 13 -6 13 8 0 17 -4 20 -9z m-203 -58 c13 -16 12
-17 -3 -4 -10 7 -18 15 -18 17 0 8 8 3 21 -13z"/>
<path d="M832 1677 c-6 -7 -14 -25 -17 -40 -7 -24 -11 -27 -43 -25 -45 4 -52
-15 -12 -32 22 -9 29 -17 25 -29 -17 -41 -17 -88 0 -104 9 -9 21 -17 26 -17
18 0 49 40 49 65 0 23 2 24 48 18 59 -7 79 10 61 51 -11 24 -57 46 -96 46 -8
0 -13 14 -13 34 0 38 -12 53 -28 33z"/>
<path d="M584 1525 c-13 -32 -18 -35 -57 -35 l-42 -1 31 -27 c30 -25 31 -31
27 -77 -6 -56 11 -82 45 -71 19 6 42 45 42 71 0 11 7 11 35 4 41 -12 75 2 75
31 0 34 -28 52 -95 62 -15 2 -21 12 -23 41 -4 46 -19 47 -38 2z"/>
<path d="M1009 1391 c-89 -93 -277 -190 -367 -191 -53 0 -33 -25 23 -28 131
-9 386 147 419 256 12 38 -15 25 -75 -37z"/>
<path d="M1152 1381 c-10 -6 -10 -10 3 -21 8 -7 15 -10 15 -7 0 3 3 12 6 21 7
17 -3 20 -24 7z"/>
<path d="M1091 1326 c-10 -12 -9 -17 8 -25 26 -14 40 5 19 25 -13 13 -16 13
-27 0z"/>
<path d="M955 1230 c-10 -11 -15 -23 -12 -27 8 -7 47 25 47 39 0 14 -16 9 -35
-12z"/>
<path d="M1010 1235 c-14 -16 -3 -20 19 -6 8 5 9 11 3 15 -5 3 -15 -1 -22 -9z"/>
<path d="M1110 1210 c0 -5 -9 -10 -19 -10 -10 0 -22 -7 -25 -16 -3 -8 -9 -13
-14 -11 -4 3 -16 -2 -27 -10 -19 -14 -18 -14 15 -8 43 9 80 33 80 51 0 8 -2
14 -5 14 -3 0 -5 -4 -5 -10z"/>
<path d="M780 1159 c0 -5 5 -7 10 -4 6 3 10 8 10 11 0 2 -4 4 -10 4 -5 0 -10
-5 -10 -11z"/>
<path d="M850 1160 c0 -6 11 -8 28 -4 39 10 40 14 4 14 -18 0 -32 -5 -32 -10z"/>
<path d="M840 1125 c0 -9 6 -12 15 -9 8 4 15 10 15 15 0 5 -7 9 -15 9 -8 0
-15 -7 -15 -15z"/>
<path d="M800 1110 c0 -5 5 -10 11 -10 5 0 7 5 4 10 -3 6 -8 10 -11 10 -2 0
-4 -4 -4 -10z"/>
<path d="M718 1098 c9 -9 15 -9 24 0 9 9 7 12 -12 12 -19 0 -21 -3 -12 -12z"/>
<path d="M635 1080 c-18 -20 -18 -21 5 -12 13 5 26 14 28 20 6 19 -13 14 -33
-8z"/>
<path d="M735 1070 c-3 -5 -2 -10 4 -10 5 0 13 5 16 10 3 6 2 10 -4 10 -5 0
-13 -4 -16 -10z"/>
<path d="M696 1051 c-3 -5 -19 -7 -36 -5 -17 2 -28 0 -25 -5 6 -10 80 -10 90
0 3 4 -1 9 -9 12 -9 4 -18 2 -20 -2z"/>
<path d="M805 1041 c-3 -5 -20 -13 -38 -17 l-32 -7 30 -8 c23 -7 33 -4 47 11
10 10 18 22 18 25 0 9 -18 6 -25 -4z"/>
</g>
</svg>
