<?xml version="1.0" standalone="no"?>
<!DOCTYPE svg PUBLIC "-//W3C//DTD SVG 20010904//EN"
 "http://www.w3.org/TR/2001/REC-SVG-20010904/DTD/svg10.dtd">
<svg version="1.0" xmlns="http://www.w3.org/2000/svg"
 width="300.000000pt" height="168.000000pt" viewBox="0 0 300.000000 168.000000"
 preserveAspectRatio="xMidYMid meet">

<g transform="translate(0.000000,168.000000) scale(0.100000,-0.100000)"
fill="#000000" stroke="none">
<path d="M0 1267 c0 -308 3 -416 12 -425 9 -9 9 -12 0 -12 -9 0 -12 -45 -12
-174 0 -186 1 -188 52 -201 16 -4 25 -11 22 -16 -8 -13 43 -11 65 3 15 9 23 9
35 -1 9 -7 14 -16 12 -20 -2 -3 10 -6 26 -6 17 0 33 -5 35 -11 2 -6 -10 -8
-33 -6 -26 3 -35 1 -30 -7 4 -6 1 -11 -8 -11 -9 0 -16 -4 -16 -10 0 -5 14 -10
31 -10 23 0 30 -4 26 -15 -4 -8 -2 -17 3 -20 13 -8 79 14 103 34 14 12 17 12
17 0 0 -24 -17 -42 -31 -34 -12 7 -12 5 -1 -6 7 -8 16 -14 20 -14 4 -1 17 -7
30 -14 23 -12 23 -12 7 13 l-16 25 52 -20 c28 -11 58 -18 65 -15 8 3 14 1 14
-5 0 -7 10 -9 25 -5 14 4 31 3 38 -1 6 -4 22 -8 35 -9 24 -3 24 -2 6 14 -21
19 -85 40 -122 41 -19 0 -21 -3 -12 -15 18 -20 3 -17 -37 7 -30 19 -33 23 -19
31 9 5 14 13 11 19 -4 5 -1 9 4 9 6 0 11 6 11 14 0 15 29 14 82 -3 18 -6 45
-13 61 -16 15 -3 27 -10 27 -15 0 -5 -7 -7 -15 -4 -8 4 -15 2 -15 -3 0 -17 36
-43 58 -43 12 0 22 -4 22 -10 0 -5 6 -10 14 -10 8 0 16 -7 20 -15 3 -8 14 -15
25 -15 10 0 21 -7 25 -15 3 -8 1 -15 -4 -15 -6 0 -10 4 -10 8 0 5 -21 9 -46
11 -32 1 -44 -1 -39 -9 4 -7 18 -10 31 -7 37 7 53 -10 21 -22 -30 -12 -36 -31
-10 -31 9 0 30 -11 47 -23 44 -34 82 -42 95 -20 5 10 12 15 16 11 4 -3 -3 -16
-14 -27 -17 -17 -25 -19 -41 -11 -11 6 -26 10 -33 9 -26 -3 -35 2 -40 21 -6
23 -37 28 -37 6 0 -16 53 -46 80 -46 9 0 23 -11 30 -25 10 -19 21 -25 47 -25
18 0 33 -4 33 -9 0 -5 -9 -7 -20 -4 -11 3 -31 2 -45 -1 -21 -5 -23 -9 -13 -19
10 -11 103 -14 420 -16 372 -2 455 3 403 23 -17 6 -21 46 -5 46 6 0 10 -4 10
-10 0 -5 5 -10 11 -10 6 0 9 7 5 15 -3 8 -2 15 3 15 4 0 13 -18 20 -39 l11
-40 60 0 c61 1 72 13 22 24 -17 3 -28 12 -28 23 0 9 -3 33 -7 54 l-8 36 36 -3
c19 -2 35 -1 35 1 0 11 -23 49 -34 56 -8 6 -8 8 0 8 14 0 46 -35 39 -42 -3 -3
1 -8 9 -11 9 -4 22 0 30 8 16 17 30 7 16 -10 -8 -9 -4 -12 16 -12 18 -1 22 3
15 10 -7 7 -5 14 7 23 16 12 15 13 -5 14 -16 0 -23 6 -23 19 0 10 -3 31 -6 47
-3 19 0 36 11 49 10 12 15 14 12 5 -3 -12 5 -15 39 -16 46 -1 50 2 34 26 -9
13 -10 13 -10 0 0 -13 -1 -13 -10 0 -8 13 -10 12 -10 -4 0 -18 -1 -18 -18 -3
-10 10 -23 17 -29 17 -10 0 -11 6 -14 50 -4 63 1 80 19 74 14 -5 15 -4 2 5
-12 8 -12 13 -2 23 9 9 12 9 12 -2 0 -11 3 -11 12 -2 9 9 9 15 0 24 -9 9 -18
5 -40 -20 -27 -30 -29 -30 -42 -13 -13 19 -15 32 -4 30 4 0 10 5 15 12 6 10
11 10 21 1 11 -9 17 -9 26 0 8 8 15 8 27 -2 14 -12 18 -11 25 0 5 8 7 17 4 21
-2 4 10 5 28 2 27 -4 30 -3 20 10 -6 7 -9 17 -5 20 13 14 23 6 23 -17 0 -13 7
-26 15 -30 11 -4 15 2 15 20 0 22 3 25 23 20 12 -3 25 -6 30 -6 4 0 7 -7 7
-15 0 -8 7 -15 15 -15 8 0 15 -5 15 -11 0 -7 -12 -10 -30 -7 -34 5 -34 5 -19
-24 8 -16 8 -19 -1 -13 -9 6 -9 3 -1 -13 7 -14 8 -23 1 -27 -5 -3 -10 -12 -9
-18 0 -9 2 -8 6 1 2 6 9 10 14 6 13 -8 11 -34 -3 -32 -6 2 -14 -5 -16 -16 -2
-12 0 -16 7 -11 8 4 10 -3 6 -23 -4 -25 -2 -30 13 -27 9 2 21 4 25 4 5 1 6 5
3 10 -3 5 12 8 34 7 22 0 40 -4 40 -7 0 -11 -31 -20 -42 -13 -6 4 -8 -1 -4
-12 3 -11 1 -26 -4 -34 -8 -12 -10 -12 -15 2 -8 21 -34 12 -45 -16 -8 -20 -9
-20 -9 4 -1 18 -4 21 -12 13 -9 -9 -8 -18 5 -37 18 -28 21 -56 6 -56 -5 0 -7
-7 -4 -15 7 -18 41 -20 47 -2 4 9 7 9 18 -1 11 -10 10 -12 -5 -12 -9 0 -15 -4
-11 -9 3 -5 0 -13 -6 -17 -8 -4 -9 -3 -5 4 5 8 0 12 -13 12 -11 0 -23 5 -26
11 -4 6 -14 8 -22 5 -9 -4 -11 -2 -7 6 5 8 2 9 -12 3 -10 -4 -29 -10 -41 -12
-32 -7 -30 -41 4 -54 15 -5 54 -8 87 -5 38 3 55 1 45 -5 -8 -5 -48 -9 -89 -9
-60 -1 -70 -3 -50 -11 l25 -10 -25 -19 c-25 -19 -24 -20 193 -20 138 0 217 4
217 10 0 6 7 10 16 10 17 0 32 14 50 45 6 10 17 21 25 23 11 3 11 1 -1 -7 -9
-6 -10 -11 -3 -11 6 0 9 -9 6 -20 -3 -12 -8 -19 -10 -16 -7 7 -32 -18 -26 -26
2 -5 136 -7 296 -6 222 1 261 3 162 7 -106 5 -141 11 -190 31 -67 28 -98 50
-70 50 14 0 16 6 11 34 -8 42 10 52 45 24 13 -11 18 -16 10 -12 -9 4 -12 2 -9
-7 3 -8 -4 -20 -16 -27 -19 -12 -19 -13 -1 -6 11 4 38 8 59 11 22 2 47 10 56
18 9 8 31 20 48 26 33 11 40 23 22 34 -8 5 -8 11 0 20 8 10 8 15 0 20 -7 5 -8
11 -1 19 16 19 -10 61 -42 64 -29 4 -38 22 -10 22 9 0 14 3 10 6 -3 4 -27 1
-53 -5 -53 -13 -70 -8 -31 10 15 7 24 15 22 20 -3 4 -18 1 -33 -7 -15 -7 -33
-14 -40 -14 -7 0 -15 -7 -18 -15 -4 -8 -10 -15 -15 -15 -4 0 -5 8 -2 17 5 12
1 11 -15 -5 -19 -19 -33 -22 -89 -21 -38 1 -60 3 -50 6 9 2 15 8 12 12 -2 5 6
7 20 6 13 -2 26 3 29 12 3 8 11 11 17 7 6 -3 15 0 20 7 8 12 11 12 19 -1 8
-13 10 -12 10 3 0 16 -10 21 -37 18 -7 -1 -23 3 -34 10 -19 10 -21 9 -16 -5 5
-13 -1 -16 -36 -16 -23 0 -51 -7 -61 -15 -13 -10 -15 -15 -6 -15 9 0 7 -5 -6
-15 -22 -16 -114 -20 -114 -5 0 6 -6 5 -14 -2 -11 -11 -11 -15 3 -26 15 -12
14 -13 -1 -8 -10 3 -18 1 -18 -4 0 -6 -5 -10 -11 -10 -6 0 -8 9 -4 23 6 17 4
19 -5 11 -6 -6 -13 -20 -14 -30 -3 -19 -26 -33 -26 -15 0 6 -10 11 -22 11 -22
-1 -23 -1 -4 -15 25 -19 16 -19 -19 -1 l-28 15 36 6 c27 5 34 11 30 23 -5 11
-3 13 8 7 12 -8 12 -6 0 9 -13 16 -12 17 14 10 20 -5 26 -4 21 5 -4 6 -4 11 1
10 33 -6 47 16 16 24 -10 3 1 5 25 6 37 1 42 4 42 24 0 12 4 18 8 12 8 -11 83
-15 76 -4 -2 4 3 10 12 13 24 9 36 7 29 -5 -4 -5 10 -3 30 5 21 9 44 16 53 16
8 0 21 8 29 17 10 13 16 15 19 6 8 -18 25 -16 18 1 -4 9 9 16 43 23 26 6 56
14 66 18 14 6 16 4 10 -11 -4 -12 -3 -15 5 -10 16 10 15 43 0 48 -9 3 -8 9 5
22 12 13 17 14 18 4 0 -7 2 -26 2 -43 l2 -30 80 -2 c44 0 101 1 128 4 44 5 47
7 47 34 0 25 -4 29 -29 29 -43 0 -47 18 -6 26 l35 6 0 559 0 559 -292 0 c-264
0 -292 -2 -305 -18 -12 -16 -13 -16 -7 1 6 17 -3 18 -149 16 -127 -2 -154 -5
-146 -16 6 -7 15 -11 19 -8 14 9 23 -16 11 -28 -9 -9 -10 -7 -5 7 5 14 4 17
-5 12 -7 -5 -10 -17 -8 -28 3 -11 3 -17 0 -14 -3 3 -11 -1 -18 -8 -15 -15 -26
-104 -13 -112 5 -3 7 -13 4 -21 -3 -8 -1 -11 4 -8 6 3 10 -1 10 -9 0 -9 8 -16
18 -17 10 0 12 -3 5 -6 -15 -6 -17 -23 -3 -23 5 0 12 11 16 25 3 14 10 22 15
19 5 -3 7 -10 4 -15 -13 -20 33 -44 51 -27 4 5 14 -2 22 -13 13 -19 13 -23 -2
-31 -9 -5 -16 -14 -16 -20 0 -7 7 -5 18 4 27 24 52 30 52 13 0 -8 8 -15 18
-15 28 0 34 -11 16 -31 -9 -10 -11 -19 -5 -23 5 -4 12 3 16 13 3 11 19 27 35
34 28 14 28 14 19 -7 -5 -11 -12 -29 -15 -38 -4 -10 -10 -18 -15 -18 -5 0 -9
-7 -9 -16 0 -11 5 -14 16 -10 15 6 15 4 3 -10 -7 -9 -15 -12 -17 -6 -1 5 -12
8 -23 5 -15 -4 -22 0 -26 16 -6 24 -33 29 -33 6 0 -7 -8 -19 -17 -24 -10 -6
-12 -11 -5 -11 6 0 12 -7 12 -16 0 -8 -4 -13 -9 -9 -5 3 -17 -2 -26 -11 -13
-14 -14 -19 -3 -25 10 -7 9 -9 -4 -9 -9 0 -18 -5 -20 -11 -4 -13 -35 -2 -42
16 -3 9 0 12 8 9 7 -3 19 3 27 12 12 15 12 16 -6 11 -11 -3 -33 -9 -48 -13
-21 -5 -25 -9 -15 -15 10 -7 9 -9 -5 -9 -10 0 -15 -5 -12 -10 3 -5 2 -10 -4
-10 -6 0 -8 -7 -5 -15 4 -8 10 -12 15 -9 5 3 9 1 9 -4 0 -5 15 -17 33 -26 19
-9 25 -16 15 -16 -10 0 -18 -5 -18 -11 0 -5 -4 -8 -9 -4 -5 3 -12 1 -16 -5 -3
-5 2 -10 11 -10 16 0 16 -1 -1 -14 -11 -8 -16 -19 -12 -30 4 -11 1 -16 -9 -16
-11 0 -14 5 -10 16 5 13 3 14 -6 7 -22 -18 -43 0 -47 40 -2 26 1 37 11 37 21
0 22 56 1 64 -17 7 -33 -9 -33 -33 0 -8 -6 -11 -16 -7 -9 4 -23 1 -32 -6 -13
-11 -15 -10 -10 9 6 23 -16 41 -27 22 -4 -5 -11 -7 -16 -4 -5 4 -15 3 -21 -2
-21 -13 -36 -12 -48 2 -6 8 -17 13 -23 11 -7 -1 -9 -1 -6 1 4 2 1 16 -6 31
-25 51 -28 72 -10 72 8 0 20 12 26 27 8 21 12 24 19 14 5 -10 8 -6 7 12 -2 28
-12 36 -20 15 -2 -7 -8 -9 -13 -5 -5 5 -2 14 8 21 24 18 4 50 -23 36 -15 -9
-19 -7 -19 7 0 14 -2 15 -9 4 -5 -7 -13 -11 -19 -7 -5 3 -15 -7 -20 -23 -8
-22 -7 -31 1 -35 9 -3 9 -5 0 -5 -18 -1 -25 17 -14 38 8 14 7 22 -3 30 -7 6
-16 8 -19 4 -4 -3 -7 0 -7 7 0 7 -3 10 -6 7 -4 -4 -1 -13 6 -22 7 -9 9 -22 4
-32 -4 -10 -8 -20 -9 -23 -16 -47 -38 -55 -25 -10 5 17 5 28 0 25 -4 -3 -10 1
-13 9 -3 8 1 17 9 20 8 3 13 13 13 23 -1 16 -2 16 -6 1 -2 -9 -13 -20 -24 -23
-24 -8 -27 -55 -3 -55 8 0 12 -4 9 -10 -3 -5 -13 -10 -21 -10 -8 0 -13 4 -9 9
3 6 -2 14 -11 19 -19 11 -54 4 -54 -10 0 -5 4 -7 8 -4 13 8 28 -6 46 -42 10
-19 20 -31 24 -28 3 4 0 12 -6 18 -19 19 -14 23 28 23 35 0 38 -2 23 -12 -9
-7 -21 -13 -26 -13 -6 0 -2 -10 9 -22 16 -17 16 -20 3 -15 -9 3 -22 0 -29 -6
-8 -7 -11 -8 -7 -1 4 6 -5 21 -18 32 -26 23 -40 29 -31 13 4 -5 -4 -7 -16 -3
-20 5 -21 3 -10 -11 8 -9 19 -14 26 -11 7 3 13 -1 13 -8 0 -9 -18 -13 -66 -12
-36 1 -74 -3 -85 -8 -14 -8 -17 -7 -11 3 6 9 2 10 -16 5 -39 -11 -73 -14 -84
-8 -5 4 -19 8 -29 9 -26 4 -34 13 -13 13 10 0 17 4 17 9 0 5 7 8 16 7 11 -1
23 16 36 51 11 29 24 51 28 48 4 -2 22 26 39 63 18 37 30 56 26 42 -4 -14 -8
-36 -9 -50 -1 -14 -7 -24 -14 -23 -7 2 -12 -2 -12 -7 0 -6 7 -10 16 -10 14 0
14 -3 4 -15 -7 -8 -20 -15 -29 -15 -14 0 -14 -2 -1 -10 8 -5 11 -10 5 -10 -5
0 -3 -5 5 -10 10 -6 11 -10 3 -10 -7 0 -13 -4 -13 -10 0 -10 87 13 102 28 5 5
10 19 11 31 1 13 6 20 14 17 8 -3 13 2 13 14 0 11 8 27 19 37 24 24 75 113 64
113 -4 0 -2 4 5 8 7 5 21 24 31 42 10 19 24 36 32 38 11 4 10 0 -2 -14 -30
-34 -58 -101 -53 -125 4 -21 3 -21 -4 -4 -9 19 -9 19 -21 -4 -11 -19 -10 -26
5 -42 16 -18 40 -27 31 -11 -3 4 1 13 9 20 8 7 14 8 14 2 0 -5 8 -10 18 -10
14 0 15 2 2 10 -17 10 -14 15 18 24 17 6 22 3 22 -11 0 -15 2 -15 9 -3 6 8 7
18 5 22 -3 4 1 6 8 3 25 -9 63 42 48 65 -6 10 -9 7 -12 -10 -1 -13 -8 -25 -14
-27 -15 -5 -26 39 -13 48 7 4 8 16 4 29 -6 18 -4 22 8 17 16 -6 29 16 32 56 2
24 -10 21 -32 -9 -13 -18 -24 -23 -37 -18 -10 4 -13 9 -7 13 6 4 2 18 -13 36
-17 21 -25 25 -31 15 -5 -9 -4 -11 3 -6 7 4 12 3 12 -3 0 -15 -18 -23 -25 -11
-3 5 -1 19 5 30 9 18 8 20 -15 20 -14 0 -25 -4 -25 -10 0 -5 -5 -10 -11 -10
-5 0 -7 4 -4 10 4 6 -275 10 -814 10 l-821 0 0 -413z m1662 347 c-3 -15 -8
-22 -14 -16 -9 9 -1 42 12 42 4 0 5 -12 2 -26z m504 -11 c-11 -11 -19 6 -11
24 8 17 8 17 12 0 3 -10 2 -21 -1 -24z m159 8 c-4 -15 -14 -21 -33 -20 -22 1
-23 2 -6 6 12 2 24 14 28 26 3 11 8 18 12 15 3 -4 3 -16 -1 -27z m615 21 c0
-9 -60 -46 -65 -40 -6 6 9 24 30 36 24 14 35 15 35 4z m-1419 -63 c-11 -24
-20 -41 -20 -37 -1 12 31 89 35 85 3 -2 -4 -24 -15 -48z m872 31 c3 -10 -3
-15 -20 -15 -15 0 -23 6 -23 17 0 21 37 20 43 -2z m117 6 c0 -3 -4 -8 -10 -11
-5 -3 -10 -1 -10 4 0 6 5 11 10 11 6 0 10 -2 10 -4z m-393 -71 c-9 -7 -14 -15
-10 -19 4 -3 17 4 30 16 12 12 26 18 30 15 9 -10 -38 -58 -50 -50 -6 4 -8 0
-4 -11 5 -12 3 -16 -5 -13 -7 2 -12 11 -10 21 2 9 -2 16 -8 16 -6 0 -1 13 12
28 13 16 25 24 27 19 2 -6 -4 -16 -12 -22z m603 26 c0 -6 -4 -12 -8 -15 -5 -3
-9 1 -9 9 0 8 4 15 9 15 4 0 8 -4 8 -9z m108 -3 c-5 -13 -38 -20 -38 -8 0 5 8
11 18 13 9 3 19 5 20 6 2 0 2 -4 0 -11z m-64 -62 c-9 -14 -21 -26 -26 -26 -5
0 -23 -9 -39 -21 -16 -11 -33 -17 -39 -14 -5 3 -10 -1 -10 -10 0 -9 -6 -15
-12 -12 -7 2 -12 13 -10 23 2 18 1 18 -11 2 -8 -10 -18 -13 -26 -9 -10 6 -10
10 -1 16 6 4 9 14 5 23 -3 9 -3 13 1 9 4 -3 19 2 34 13 15 11 31 16 35 12 5
-4 5 1 2 11 -9 24 0 21 27 -8 l23 -25 -3 28 c-2 15 -1 19 2 9 5 -17 7 -17 24
3 13 15 19 17 23 8 3 -8 6 -5 7 7 2 16 3 17 7 3 2 -9 -3 -28 -13 -42z m-225
17 c-4 -22 3 -25 17 -7 15 18 15 18 5 -2 -6 -12 -18 -24 -26 -28 -9 -3 -14 -2
-10 3 3 5 -1 12 -7 14 -10 4 -9 8 2 16 18 13 20 13 19 4z m-339 -52 c0 -6 -4
-13 -10 -16 -5 -3 -10 1 -10 9 0 9 5 16 10 16 6 0 10 -4 10 -9z m405 -81 c-4
-12 -2 -20 5 -20 7 0 5 -6 -4 -16 -19 -18 -21 -31 -3 -17 6 6 23 13 36 16 22
5 23 4 17 -31 -3 -20 -7 -42 -8 -49 -1 -7 -5 -10 -9 -8 -3 3 -26 -14 -50 -36
-24 -22 -38 -38 -31 -34 7 4 12 0 12 -9 0 -8 5 -16 12 -18 8 -3 8 -9 0 -24 -6
-10 -12 -16 -12 -12 0 4 -13 2 -30 -3 -16 -6 -29 -14 -28 -17 1 -4 -2 -15 -7
-25 -5 -13 -11 -15 -20 -7 -10 8 -17 5 -29 -12 l-16 -22 0 27 c0 16 -4 26 -10
22 -6 -3 -13 0 -16 9 -3 8 -12 12 -20 9 -8 -3 -14 0 -14 6 0 8 -6 9 -18 2 -11
-6 -24 -6 -33 0 -11 7 -11 9 4 9 10 0 15 5 12 10 -3 6 0 10 8 10 16 0 38 22
41 42 1 7 5 19 9 26 5 6 5 17 2 22 -8 12 27 13 78 1 34 -8 64 2 35 11 -8 3 -5
12 10 28 12 13 22 30 22 37 0 8 4 12 9 9 10 -6 26 40 22 63 -1 7 2 10 8 6 6
-3 11 -1 11 4 0 6 3 11 6 11 3 0 2 -9 -1 -20z m-1065 -10 c0 -5 -2 -10 -4 -10
-3 0 -8 5 -11 10 -3 6 -1 10 4 10 6 0 11 -4 11 -10z m-540 -30 c0 -5 -2 -10
-4 -10 -3 0 -8 5 -11 10 -3 6 -1 10 4 10 6 0 11 -4 11 -10z m818 -14 c-7 -8
-15 -12 -17 -11 -5 6 10 25 20 25 5 0 4 -6 -3 -14z m-50 -31 c-3 -3 -9 2 -12
12 -6 14 -5 15 5 6 7 -7 10 -15 7 -18z m662 -20 c-13 -14 -30 -25 -39 -25 -9
0 0 11 19 25 45 31 49 31 20 0z m-680 -11 c0 -2 -7 -4 -15 -4 -8 0 -15 4 -15
10 0 5 7 7 15 4 8 -4 15 -8 15 -10z m64 5 c2 -2 -6 -9 -18 -15 -20 -9 -23 -8
-19 7 4 15 25 20 37 8z m-880 -36 c11 -27 -13 -42 -30 -19 -11 16 -11 22 -1
28 18 11 24 10 31 -9z m821 -43 c3 -5 -1 -10 -9 -10 -9 0 -16 5 -16 10 0 6 4
10 9 10 6 0 13 -4 16 -10z m877 -18 c-3 -10 -1 -13 6 -8 8 5 12 0 12 -13 0
-12 -7 -21 -15 -21 -8 0 -15 5 -15 11 0 6 -9 18 -20 27 -21 17 -20 17 9 18 22
1 28 -3 23 -14z m-834 -37 c-3 -3 -9 2 -12 12 -6 14 -5 15 5 6 7 -7 10 -15 7
-18z m-395 8 c-7 -2 -19 -2 -25 0 -7 3 -2 5 12 5 14 0 19 -2 13 -5z m515 -50
c-2 -11 -11 -17 -21 -15 -9 2 -17 -1 -17 -6 0 -4 -7 -17 -15 -28 -14 -17 -14
-17 -3 11 19 46 64 76 56 38z m357 -22 c-3 -6 -11 -11 -17 -11 -6 0 -6 6 2 15
14 17 26 13 15 -4z m-466 -54 c-2 -1 -11 -8 -20 -15 -13 -10 -18 -10 -22 1 -3
8 4 14 21 15 14 1 24 1 21 -1z m-11 -41 c-7 -8 -15 -12 -17 -11 -5 6 10 25 20
25 5 0 4 -6 -3 -14z m182 -6 c0 -5 -5 -10 -11 -10 -5 0 -7 5 -4 10 3 6 8 10
11 10 2 0 4 -4 4 -10z m96 -2 c7 -11 -2 -18 -23 -20 -5 -1 -13 -8 -20 -17 -6
-9 -15 -13 -19 -9 -9 10 15 38 33 38 8 0 11 5 8 10 -3 6 -2 10 4 10 5 0 13 -5
17 -12z m894 2 c-8 -5 -28 -9 -45 -9 -30 2 -30 2 5 9 51 11 57 11 40 0z m-692
-40 c13 0 12 -3 -4 -15 -12 -9 -14 -14 -6 -15 7 0 10 -5 7 -10 -4 -6 -11 -8
-16 -5 -5 4 -12 -1 -16 -10 -5 -15 -7 -16 -15 -1 -10 18 0 68 13 60 5 -3 9 1
10 8 0 10 2 10 6 1 2 -7 12 -13 21 -13z m-291 3 c-4 -3 -1 -13 6 -22 11 -14
10 -14 -5 -2 -16 12 -16 31 -1 31 4 0 3 -3 0 -7z m986 -10 c-7 -2 -21 -2 -30
0 -10 3 -4 5 12 5 17 0 24 -2 18 -5z m-1003 -43 c-12 -8 -12 -10 -1 -10 8 0
12 -3 8 -6 -9 -9 -28 6 -22 17 4 5 12 9 18 9 7 0 6 -4 -3 -10z m-332 -55 c-3
-3 -9 2 -12 12 -6 14 -5 15 5 6 7 -7 10 -15 7 -18z m-1038 5 c0 -5 -4 -10 -10
-10 -5 0 -10 5 -10 10 0 6 5 10 10 10 6 0 10 -4 10 -10z m-292 -80 c2 -5 11
-10 20 -10 15 0 15 -2 2 -10 -8 -5 -12 -10 -7 -10 4 0 9 1 10 3 8 5 37 -27 34
-36 -5 -15 -89 -20 -98 -6 -4 7 -22 12 -40 11 -24 -1 -29 2 -19 9 10 6 3 7
-20 3 -19 -4 -32 -3 -27 1 4 5 1 18 -7 31 -8 12 -12 25 -8 28 10 11 156 -2
160 -14z m1177 10 c8 -13 -5 -13 -25 0 -13 8 -13 10 2 10 9 0 20 -4 23 -10z
m705 -1 c0 8 2 12 5 9 3 -3 3 -13 -1 -22 -7 -19 -24 -11 -24 12 0 15 2 15 10
2 8 -12 10 -12 10 -1z m-653 -5 c-3 -3 -12 -4 -19 -1 -8 3 -5 6 6 6 11 1 17
-2 13 -5z m833 -4 c0 -5 -4 -10 -10 -10 -5 0 -10 5 -10 10 0 6 5 10 10 10 6 0
10 -4 10 -10z m-150 -64 c0 -14 -29 -31 -37 -22 -6 6 19 35 30 36 4 0 7 -6 7
-14z m28 -41 c0 -16 -6 -25 -17 -25 -12 0 -13 2 -3 9 8 4 13 11 13 15 -2 14
-1 26 3 26 2 0 4 -11 4 -25z m-748 -19 c0 -10 -7 -12 -22 -8 -21 5 -21 6 -2
13 10 4 20 8 22 8 1 1 2 -5 2 -13z m640 -6 c0 -5 -5 -10 -11 -10 -5 0 -7 5 -4
10 3 6 8 10 11 10 2 0 4 -4 4 -10z m145 0 c3 -5 -1 -10 -10 -10 -9 0 -13 5
-10 10 3 6 8 10 10 10 2 0 7 -4 10 -10z m-462 -20 c3 -11 1 -18 -4 -14 -5 3
-9 12 -9 20 0 20 7 17 13 -6z m393 -17 c3 -24 -1 -32 -17 -36 -13 -3 -22 0
-26 10 -4 11 -8 12 -13 2 -11 -16 -40 -4 -40 17 0 13 3 14 13 5 11 -8 19 -5
36 15 27 31 43 27 47 -13z m-772 12 c-4 -8 -10 -12 -15 -9 -11 6 -2 24 11 24
5 0 7 -7 4 -15z m121 5 c8 -13 -5 -13 -25 0 -13 8 -13 10 2 10 9 0 20 -4 23
-10z m915 6 c0 -3 -4 -8 -10 -11 -5 -3 -10 -1 -10 4 0 6 5 11 10 11 6 0 10 -2
10 -4z m-200 -40 c0 -3 -4 -8 -10 -11 -5 -3 -10 -1 -10 4 0 6 5 11 10 11 6 0
10 -2 10 -4z m593 -38 c30 -15 8 -31 -35 -24 -21 4 -48 2 -58 -4 -22 -12 -23
-10 -14 14 3 9 15 16 26 16 11 0 16 5 13 10 -7 12 37 4 68 -12z m-2643 2 c11
-7 7 -10 -18 -10 -20 0 -31 4 -27 10 8 13 26 13 45 0z m1938 -10 c6 0 12 -4
12 -8 0 -4 -9 -8 -20 -8 -11 0 -20 3 -20 7 0 4 -6 9 -12 12 -7 2 -4 3 7 1 11
-2 26 -4 33 -4z m-1828 -40 c0 -5 -7 -7 -15 -4 -8 4 -15 8 -15 10 0 2 7 4 15
4 8 0 15 -4 15 -10z m1030 -20 c-6 -11 -15 -20 -20 -20 -4 0 -16 -3 -25 -6
-10 -4 -15 -2 -13 7 2 7 17 19 33 25 17 6 31 12 33 13 1 0 -2 -8 -8 -19z m310
-12 c0 -10 -2 -18 -5 -18 -8 0 -65 30 -65 34 0 1 16 2 35 2 26 -1 35 -5 35
-18z m69 -33 c-1 -30 -5 -52 -9 -50 -6 3 -6 27 -1 88 0 9 3 17 7 17 3 0 4 -25
3 -55z m-1085 23 c-3 -4 -9 -8 -15 -8 -5 0 -9 4 -9 8 0 5 7 9 15 9 8 0 12 -4
9 -9z m1796 -3 c0 -8 -4 -15 -9 -15 -13 0 -22 16 -14 24 11 11 23 6 23 -9z
m53 8 c-7 -2 -19 -2 -25 0 -7 3 -2 5 12 5 14 0 19 -2 13 -5z m-2203 -22 c0 -5
3 -16 6 -25 4 -12 0 -16 -16 -16 -19 0 -20 3 -10 15 6 8 9 19 5 25 -3 5 -1 10
4 10 6 0 11 -4 11 -9z m505 -1 c17 -8 16 -8 -7 -7 -16 1 -28 5 -28 9 0 10 9 9
35 -2z m1392 4 c-3 -3 -12 -4 -19 -1 -8 3 -5 6 6 6 11 1 17 -2 13 -5z m-1460
-20 c-3 -3 -12 -4 -19 -1 -8 3 -5 6 6 6 11 1 17 -2 13 -5z m-520 -20 c-3 -3
-12 -4 -19 -1 -8 3 -5 6 6 6 11 1 17 -2 13 -5z m550 0 c-3 -3 -12 -4 -19 -1
-8 3 -5 6 6 6 11 1 17 -2 13 -5z m1693 -53 c0 -10 -26 -9 -36 2 -4 4 2 7 14 7
12 0 22 -4 22 -9z m-1636 -65 c-6 -14 -8 -15 -18 -2 -6 8 -22 17 -36 19 -21 4
-20 5 8 6 18 0 32 6 32 14 0 7 5 5 10 -5 6 -9 7 -24 4 -32z m986 30 c0 -7 -8
-16 -19 -19 -14 -3 -17 0 -14 14 6 22 33 26 33 5z m-469 -42 c-7 -31 -9 -34
-10 -12 -1 27 9 62 15 55 3 -2 0 -22 -5 -43z m-561 12 c0 -3 -4 -8 -10 -11 -5
-3 -10 -1 -10 4 0 6 5 11 10 11 6 0 10 -2 10 -4z m890 -21 c-7 -8 -18 -15 -24
-15 -6 0 -2 7 8 15 25 19 32 19 16 0z m1088 5 c30 0 3 -25 -29 -26 -19 -1 -28
1 -21 3 10 4 10 8 0 21 -11 13 -10 15 12 9 14 -4 31 -7 38 -7z m-534 -29 c4
-5 -3 -7 -14 -4 -23 6 -26 13 -6 13 8 0 17 -4 20 -9z m376 0 c0 -11 -59 -20
-66 -10 -2 4 4 10 13 12 31 8 53 7 53 -2z m-797 -15 c3 -8 -1 -17 -9 -20 -23
-9 -34 -7 -34 4 0 6 7 10 16 10 8 0 12 5 9 10 -3 6 -2 10 3 10 6 0 12 -6 15
-14z m702 5 c-3 -5 3 -12 12 -14 10 -3 -2 -5 -27 -5 l-45 0 30 13 c37 17 38
17 30 6z m-397 -36 c-3 -3 -9 2 -12 12 -6 14 -5 15 5 6 7 -7 10 -15 7 -18z
m-18 -6 c0 -6 -4 -7 -10 -4 -5 3 -10 11 -10 16 0 6 5 7 10 4 6 -3 10 -11 10
-16z m-1216 -4 c-10 -8 -26 -14 -34 -15 -8 0 -4 6 10 14 34 19 48 20 24 1z m6
-52 c8 -2 26 -4 40 -5 36 -3 53 -24 46 -53 -6 -22 -11 -25 -49 -23 -41 1 -41
1 -6 5 32 4 35 7 32 28 -5 24 -28 35 -75 35 -19 0 -28 5 -28 16 0 10 5 12 13
7 6 -4 19 -9 27 -10z m404 -22 c14 -5 16 -10 8 -15 -7 -4 -12 -15 -12 -24 0
-15 2 -15 10 -2 10 16 13 10 5 -12 -6 -14 -128 -19 -141 -5 -4 4 20 7 54 7 35
0 62 4 62 10 0 6 -5 10 -11 10 -8 0 -8 5 1 15 17 21 7 19 -19 -4 -24 -21 -51
-18 -51 4 0 20 59 30 94 16z m-389 -11 c3 -5 -1 -10 -10 -10 -9 0 -13 5 -10
10 3 6 8 10 10 10 2 0 7 -4 10 -10z m1125 -44 c0 -3 -4 -8 -10 -11 -5 -3 -10
-1 -10 4 0 6 5 11 10 11 6 0 10 -2 10 -4z"/>
<path d="M2645 1491 c-3 -5 -1 -12 5 -16 5 -3 10 1 10 9 0 18 -6 21 -15 7z"/>
<path d="M247 720 c7 -25 33 -27 33 -2 0 14 -2 15 -10 2 -8 -13 -10 -12 -10 3
0 9 -4 17 -9 17 -5 0 -7 -9 -4 -20z"/>
<path d="M2011 1634 c0 -11 3 -14 6 -6 3 7 2 16 -1 19 -3 4 -6 -2 -5 -13z"/>
<path d="M1894 1593 c3 -6 2 -14 -4 -18 -5 -3 -10 -11 -10 -18 0 -6 7 -4 17 6
14 14 15 19 4 29 -9 9 -12 9 -7 1z"/>
<path d="M1852 1548 c-15 -15 -15 -35 -2 -43 6 -4 10 -3 9 2 -1 4 1 16 6 26 9
22 2 30 -13 15z"/>
<path d="M2070 1420 c-6 -11 -8 -20 -6 -20 3 0 10 9 16 20 6 11 8 20 6 20 -3
0 -10 -9 -16 -20z"/>
<path d="M2045 1370 c-3 -5 1 -10 10 -10 9 0 13 5 10 10 -3 6 -8 10 -10 10 -2
0 -7 -4 -10 -10z"/>
<path d="M1597 1355 c3 -10 1 -15 -7 -13 -7 2 -15 -3 -17 -10 -3 -8 1 -10 11
-6 10 4 16 1 16 -7 0 -8 3 -10 10 -3 11 11 2 54 -11 54 -5 0 -6 -7 -2 -15z"/>
<path d="M2155 1360 c-3 -5 -1 -10 4 -10 6 0 11 5 11 10 0 6 -2 10 -4 10 -3 0
-8 -4 -11 -10z"/>
<path d="M2191 1332 c-1 -7 -5 -11 -11 -7 -5 3 -7 -9 -4 -32 4 -36 14 -59 14
-33 0 10 3 10 15 0 11 -9 19 -10 26 -3 15 15 7 48 -10 48 -8 0 -17 9 -22 20
-4 11 -8 14 -8 7z"/>
<path d="M2063 1314 c-15 -16 -16 -24 -4 -24 8 0 24 30 19 35 -2 2 -9 -3 -15
-11z"/>
<path d="M2112 1322 c-7 -5 -14 -19 -17 -32 -2 -12 -3 -21 -1 -19 3 2 4 7 3
10 -1 4 7 16 17 28 20 22 20 26 -2 13z"/>
<path d="M1568 1258 c5 -5 16 -8 23 -6 8 3 3 7 -10 11 -17 4 -21 3 -13 -5z"/>
<path d="M1390 1220 c0 -5 5 -10 11 -10 5 0 7 5 4 10 -3 6 -8 10 -11 10 -2 0
-4 -4 -4 -10z"/>
<path d="M1420 1221 c0 -5 11 -11 25 -14 15 -2 24 0 22 6 -4 13 -47 20 -47 8z"/>
<path d="M1545 1200 c3 -5 8 -10 11 -10 2 0 4 5 4 10 0 6 -5 10 -11 10 -5 0
-7 -4 -4 -10z"/>
<path d="M2085 1030 c-3 -5 -1 -10 4 -10 6 0 11 5 11 10 0 6 -2 10 -4 10 -3 0
-8 -4 -11 -10z"/>
<path d="M2820 422 c0 -5 12 -13 27 -17 15 -3 30 -11 33 -16 4 -5 27 -12 53
-15 39 -6 47 -4 47 9 0 22 -14 29 -68 33 -26 2 -57 6 -69 10 -13 4 -23 2 -23
-4z"/>
<path d="M1946 413 c-15 -4 -16 -7 -5 -14 11 -7 11 -9 1 -9 -10 0 -9 -5 3 -17
14 -14 18 -14 26 -2 12 19 11 29 -2 29 -5 0 -7 5 -4 10 3 6 5 9 3 9 -2 -1 -12
-4 -22 -6z"/>
<path d="M2718 394 c-2 -1 -23 -4 -46 -5 -27 -2 -42 -8 -42 -16 0 -17 33 -16
89 1 36 10 40 14 23 18 -11 3 -22 4 -24 2z"/>
<path d="M438 383 c7 -3 16 -2 19 1 4 3 -2 6 -13 5 -11 0 -14 -3 -6 -6z"/>
<path d="M2808 383 c7 -3 16 -2 19 1 4 3 -2 6 -13 5 -11 0 -14 -3 -6 -6z"/>
<path d="M2832 356 l-24 -23 33 -12 c38 -13 136 -15 104 -2 -11 5 -33 20 -48
35 -34 31 -36 31 -65 2z"/>
<path d="M1961 326 c-10 -12 -9 -14 5 -12 10 2 20 8 22 14 5 17 -13 15 -27 -2z"/>
<path d="M2321 324 c6 -7 17 -10 25 -7 20 7 18 10 -11 15 -20 4 -23 2 -14 -8z"/>
<path d="M2021 324 c0 -6 -18 -15 -39 -20 -36 -9 -37 -10 -20 -26 16 -16 19
-16 33 -2 11 12 15 12 15 2 0 -8 5 -6 11 5 6 10 8 25 6 35 -3 9 -5 12 -6 6z"/>
<path d="M317 267 c-4 -10 2 -13 20 -9 18 3 21 7 11 13 -18 12 -25 11 -31 -4z"/>
<path d="M560 261 c0 -14 18 -23 31 -15 8 4 7 9 -2 15 -18 11 -29 11 -29 0z"/>
<path d="M240 235 c0 -9 7 -27 16 -40 13 -20 25 -25 60 -25 47 0 62 19 17 21
-16 1 -31 1 -35 0 -5 0 -8 4 -8 9 0 6 -7 10 -15 10 -8 0 -15 6 -15 14 0 8 -4
18 -10 21 -5 3 -10 -1 -10 -10z"/>
<path d="M442 244 c11 -10 89 -14 83 -4 -3 6 -25 10 -47 10 -23 0 -39 -3 -36
-6z"/>
<path d="M165 230 c-3 -5 0 -10 8 -10 8 0 26 -9 40 -20 14 -11 28 -20 31 -20
8 0 -16 43 -29 52 -14 11 -43 10 -50 -2z"/>
<path d="M1848 203 c6 -2 18 -2 25 0 6 3 1 5 -13 5 -14 0 -19 -2 -12 -5z"/>
<path d="M2965 174 c-15 -11 -17 -18 -9 -32 6 -9 19 -18 28 -20 12 -3 16 4 16
32 0 40 -5 43 -35 20z"/>
<path d="M630 156 c0 -9 5 -16 10 -16 6 0 10 4 10 9 0 6 -4 13 -10 16 -5 3
-10 -1 -10 -9z"/>
<path d="M2870 150 c0 -5 5 -10 11 -10 5 0 7 5 4 10 -3 6 -8 10 -11 10 -2 0
-4 -4 -4 -10z"/>
<path d="M1810 100 c0 -5 5 -10 11 -10 5 0 7 5 4 10 -3 6 -8 10 -11 10 -2 0
-4 -4 -4 -10z"/>
<path d="M662 71 c-12 -10 -22 -20 -22 -23 0 -5 113 2 119 8 2 2 -2 10 -9 19
-17 21 -62 19 -88 -4z"/>
<path d="M0 35 l0 -35 163 1 c113 1 150 4 122 10 -22 4 -60 9 -85 10 -42 1
-43 2 -15 9 25 6 26 8 7 9 -13 0 -30 8 -38 16 -11 10 -36 15 -85 15 l-69 0 0
-35z"/>
</g>
</svg>
